<mxfile modified="2020-02-26T12:08:32.250Z" host="www.draw.io" agent="Mozilla/5.0 (Windows NT 10.0; Win64; x64; rv:73.0) Gecko/20100101 Firefox/73.0" etag="VrmEXexeUUQVJopV2cuw" version="12.7.6" type="github">
  <diagram id="KG_Ls5Qf2pqGlYbRwUBB" name="Page-1">
    <mxGraphModel dx="-1059" dy="791" grid="1" gridSize="10" guides="1" tooltips="1" connect="1" arrows="1" fold="1" page="1" pageScale="1" pageWidth="827" pageHeight="1169" math="0" shadow="0">
      <root>
        <mxCell id="0" />
        <mxCell id="1" parent="0" />
        <mxCell id="oRQQX_EpgQSq1oHvk_To-25" value="" style="endArrow=none;html=1;" edge="1" parent="1">
          <mxGeometry width="50" height="50" relative="1" as="geometry">
            <mxPoint x="2710" y="2318" as="sourcePoint" />
            <mxPoint x="2710" as="targetPoint" />
          </mxGeometry>
        </mxCell>
        <mxCell id="oRQQX_EpgQSq1oHvk_To-7" value="pyt.orgunits" style="swimlane;fontStyle=0;childLayout=stackLayout;horizontal=1;startSize=26;fillColor=#d5e8d4;horizontalStack=0;resizeParent=1;resizeParentMax=0;resizeLast=0;collapsible=1;marginBottom=0;strokeColor=#82b366;" vertex="1" parent="1">
          <mxGeometry x="2520" y="40" width="140" height="416" as="geometry">
            <mxRectangle x="2580" y="40" width="100" height="26" as="alternateBounds" />
          </mxGeometry>
        </mxCell>
        <mxCell id="oRQQX_EpgQSq1oHvk_To-8" value="los_id" style="text;strokeColor=none;fillColor=none;align=left;verticalAlign=top;spacingLeft=4;spacingRight=4;overflow=hidden;rotatable=0;points=[[0,0.5],[1,0.5]];portConstraint=eastwest;" vertex="1" parent="oRQQX_EpgQSq1oHvk_To-7">
          <mxGeometry y="26" width="140" height="26" as="geometry" />
        </mxCell>
        <mxCell id="oRQQX_EpgQSq1oHvk_To-11" value="uuid" style="text;strokeColor=none;fillColor=none;align=left;verticalAlign=top;spacingLeft=4;spacingRight=4;overflow=hidden;rotatable=0;points=[[0,0.5],[1,0.5]];portConstraint=eastwest;" vertex="1" parent="oRQQX_EpgQSq1oHvk_To-7">
          <mxGeometry y="52" width="140" height="26" as="geometry" />
        </mxCell>
        <mxCell id="oRQQX_EpgQSq1oHvk_To-10" value="last_changed" style="text;strokeColor=none;fillColor=none;align=left;verticalAlign=top;spacingLeft=4;spacingRight=4;overflow=hidden;rotatable=0;points=[[0,0.5],[1,0.5]];portConstraint=eastwest;" vertex="1" parent="oRQQX_EpgQSq1oHvk_To-7">
          <mxGeometry y="78" width="140" height="26" as="geometry" />
        </mxCell>
        <mxCell id="oRQQX_EpgQSq1oHvk_To-12" value="longname" style="text;strokeColor=none;fillColor=none;align=left;verticalAlign=top;spacingLeft=4;spacingRight=4;overflow=hidden;rotatable=0;points=[[0,0.5],[1,0.5]];portConstraint=eastwest;" vertex="1" parent="oRQQX_EpgQSq1oHvk_To-7">
          <mxGeometry y="104" width="140" height="26" as="geometry" />
        </mxCell>
        <mxCell id="oRQQX_EpgQSq1oHvk_To-14" value="startdate" style="text;strokeColor=none;fillColor=none;align=left;verticalAlign=top;spacingLeft=4;spacingRight=4;overflow=hidden;rotatable=0;points=[[0,0.5],[1,0.5]];portConstraint=eastwest;" vertex="1" parent="oRQQX_EpgQSq1oHvk_To-7">
          <mxGeometry y="130" width="140" height="26" as="geometry" />
        </mxCell>
        <mxCell id="oRQQX_EpgQSq1oHvk_To-13" value="enddate" style="text;strokeColor=none;fillColor=none;align=left;verticalAlign=top;spacingLeft=4;spacingRight=4;overflow=hidden;rotatable=0;points=[[0,0.5],[1,0.5]];portConstraint=eastwest;" vertex="1" parent="oRQQX_EpgQSq1oHvk_To-7">
          <mxGeometry y="156" width="140" height="26" as="geometry" />
        </mxCell>
        <mxCell id="oRQQX_EpgQSq1oHvk_To-15" value="parent_orgunit_los_id" style="text;strokeColor=none;fillColor=none;align=left;verticalAlign=top;spacingLeft=4;spacingRight=4;overflow=hidden;rotatable=0;points=[[0,0.5],[1,0.5]];portConstraint=eastwest;" vertex="1" parent="oRQQX_EpgQSq1oHvk_To-7">
          <mxGeometry y="182" width="140" height="26" as="geometry" />
        </mxCell>
        <mxCell id="oRQQX_EpgQSq1oHvk_To-16" value="shortname" style="text;strokeColor=none;fillColor=none;align=left;verticalAlign=top;spacingLeft=4;spacingRight=4;overflow=hidden;rotatable=0;points=[[0,0.5],[1,0.5]];portConstraint=eastwest;" vertex="1" parent="oRQQX_EpgQSq1oHvk_To-7">
          <mxGeometry y="208" width="140" height="26" as="geometry" />
        </mxCell>
        <mxCell id="oRQQX_EpgQSq1oHvk_To-17" value="street" style="text;strokeColor=none;fillColor=none;align=left;verticalAlign=top;spacingLeft=4;spacingRight=4;overflow=hidden;rotatable=0;points=[[0,0.5],[1,0.5]];portConstraint=eastwest;" vertex="1" parent="oRQQX_EpgQSq1oHvk_To-7">
          <mxGeometry y="234" width="140" height="26" as="geometry" />
        </mxCell>
        <mxCell id="oRQQX_EpgQSq1oHvk_To-18" value="zipcode" style="text;strokeColor=none;fillColor=none;align=left;verticalAlign=top;spacingLeft=4;spacingRight=4;overflow=hidden;rotatable=0;points=[[0,0.5],[1,0.5]];portConstraint=eastwest;" vertex="1" parent="oRQQX_EpgQSq1oHvk_To-7">
          <mxGeometry y="260" width="140" height="26" as="geometry" />
        </mxCell>
        <mxCell id="oRQQX_EpgQSq1oHvk_To-19" value="city" style="text;strokeColor=none;fillColor=none;align=left;verticalAlign=top;spacingLeft=4;spacingRight=4;overflow=hidden;rotatable=0;points=[[0,0.5],[1,0.5]];portConstraint=eastwest;" vertex="1" parent="oRQQX_EpgQSq1oHvk_To-7">
          <mxGeometry y="286" width="140" height="26" as="geometry" />
        </mxCell>
        <mxCell id="oRQQX_EpgQSq1oHvk_To-20" value="phonenumber" style="text;strokeColor=none;fillColor=none;align=left;verticalAlign=top;spacingLeft=4;spacingRight=4;overflow=hidden;rotatable=0;points=[[0,0.5],[1,0.5]];portConstraint=eastwest;" vertex="1" parent="oRQQX_EpgQSq1oHvk_To-7">
          <mxGeometry y="312" width="140" height="26" as="geometry" />
        </mxCell>
        <mxCell id="oRQQX_EpgQSq1oHvk_To-21" value="cvr" style="text;strokeColor=none;fillColor=none;align=left;verticalAlign=top;spacingLeft=4;spacingRight=4;overflow=hidden;rotatable=0;points=[[0,0.5],[1,0.5]];portConstraint=eastwest;" vertex="1" parent="oRQQX_EpgQSq1oHvk_To-7">
          <mxGeometry y="338" width="140" height="26" as="geometry" />
        </mxCell>
        <mxCell id="oRQQX_EpgQSq1oHvk_To-22" value="ean" style="text;strokeColor=none;fillColor=none;align=left;verticalAlign=top;spacingLeft=4;spacingRight=4;overflow=hidden;rotatable=0;points=[[0,0.5],[1,0.5]];portConstraint=eastwest;" vertex="1" parent="oRQQX_EpgQSq1oHvk_To-7">
          <mxGeometry y="364" width="140" height="26" as="geometry" />
        </mxCell>
        <mxCell id="oRQQX_EpgQSq1oHvk_To-23" value="manager_opus_id" style="text;strokeColor=none;fillColor=none;align=left;verticalAlign=top;spacingLeft=4;spacingRight=4;overflow=hidden;rotatable=0;points=[[0,0.5],[1,0.5]];portConstraint=eastwest;" vertex="1" parent="oRQQX_EpgQSq1oHvk_To-7">
          <mxGeometry y="390" width="140" height="26" as="geometry" />
        </mxCell>
        <mxCell id="oRQQX_EpgQSq1oHvk_To-45" style="edgeStyle=orthogonalEdgeStyle;rounded=0;orthogonalLoop=1;jettySize=auto;html=1;" edge="1" parent="1" source="oRQQX_EpgQSq1oHvk_To-42" target="oRQQX_EpgQSq1oHvk_To-44">
          <mxGeometry relative="1" as="geometry" />
        </mxCell>
        <mxCell id="oRQQX_EpgQSq1oHvk_To-42" value="&lt;div&gt;SVDIGITASK1&lt;/div&gt;&lt;div&gt;mox_intranote.py&lt;/div&gt;&lt;div&gt;KÃ¸rer dagligt&lt;br&gt;&lt;/div&gt;" style="rounded=0;whiteSpace=wrap;html=1;fillColor=#d5e8d4;strokeColor=#82b366;" vertex="1" parent="1">
          <mxGeometry x="2775" y="179" width="120" height="60" as="geometry" />
        </mxCell>
        <mxCell id="oRQQX_EpgQSq1oHvk_To-43" style="edgeStyle=orthogonalEdgeStyle;rounded=0;orthogonalLoop=1;jettySize=auto;html=1;" edge="1" parent="1" source="oRQQX_EpgQSq1oHvk_To-13" target="oRQQX_EpgQSq1oHvk_To-42">
          <mxGeometry relative="1" as="geometry" />
        </mxCell>
        <mxCell id="oRQQX_EpgQSq1oHvk_To-47" style="edgeStyle=orthogonalEdgeStyle;rounded=0;orthogonalLoop=1;jettySize=auto;html=1;" edge="1" parent="1" source="oRQQX_EpgQSq1oHvk_To-44" target="oRQQX_EpgQSq1oHvk_To-46">
          <mxGeometry relative="1" as="geometry" />
        </mxCell>
        <mxCell id="oRQQX_EpgQSq1oHvk_To-44" value="Service der rykker CVS filen til SFTP" style="rounded=0;whiteSpace=wrap;html=1;fillColor=#d5e8d4;strokeColor=#82b366;" vertex="1" parent="1">
          <mxGeometry x="2960" y="179" width="120" height="60" as="geometry" />
        </mxCell>
        <mxCell id="oRQQX_EpgQSq1oHvk_To-46" value="Intranote henter CSV" style="ellipse;shape=cloud;whiteSpace=wrap;html=1;" vertex="1" parent="1">
          <mxGeometry x="3160" y="163" width="170" height="92" as="geometry" />
        </mxCell>
      </root>
    </mxGraphModel>
  </diagram>
</mxfile>
